<svg width="44" height="47" viewBox="0 0 44 47" fill="none" xmlns="http://www.w3.org/2000/svg">
<rect width="21" height="6" transform="matrix(1 0 0 -1 11 15)" fill="#FFB703"/>
<rect width="2" height="2" transform="matrix(1 0 0 -1 13 13)" fill="white"/>
<rect width="2" height="2" transform="matrix(1 0 0 -1 16 13)" fill="white"/>
<rect width="2" height="2" transform="matrix(1 0 0 -1 19 13)" fill="white"/>
<rect width="2" height="2" transform="matrix(1 0 0 -1 22 13)" fill="white"/>
<rect width="2" height="2" transform="matrix(1 0 0 -1 25 13)" fill="white"/>
<rect width="2" height="2" transform="matrix(1 0 0 -1 28 13)" fill="white"/>
<rect width="21" height="6" transform="matrix(1 0 0 -1 11 26)" fill="#FFB703"/>
<rect width="2" height="2" transform="matrix(1 0 0 -1 13 24)" fill="white"/>
<rect width="2" height="2" transform="matrix(1 0 0 -1 16 24)" fill="white"/>
<rect width="2" height="2" transform="matrix(1 0 0 -1 19 24)" fill="white"/>
<rect width="2" height="2" transform="matrix(1 0 0 -1 22 24)" fill="white"/>
<rect width="2" height="2" transform="matrix(1 0 0 -1 25 24)" fill="white"/>
<rect width="2" height="2" transform="matrix(1 0 0 -1 28 24)" fill="white"/>
<path d="M4.32031 36.5645L4.99023 33.0234H6.01221L4.9082 38H3.87598L3.06592 34.6709L2.25586 38H1.22363L0.119629 33.0234H1.1416L1.81494 36.5576L2.63525 33.0234H3.50342L4.32031 36.5645ZM8.53125 38C8.48568 37.9111 8.45264 37.8006 8.43213 37.6685C8.19287 37.9351 7.88184 38.0684 7.49902 38.0684C7.13672 38.0684 6.83594 37.9635 6.59668 37.7539C6.3597 37.5443 6.24121 37.2799 6.24121 36.9609C6.24121 36.569 6.3859 36.2682 6.67529 36.0586C6.96696 35.849 7.38737 35.743 7.93652 35.7407H8.39111V35.5288C8.39111 35.3579 8.34668 35.2212 8.25781 35.1187C8.17122 35.0161 8.03337 34.9648 7.84424 34.9648C7.6779 34.9648 7.54688 35.0047 7.45117 35.0845C7.35775 35.1642 7.31104 35.2736 7.31104 35.4126H6.32324C6.32324 35.1984 6.38932 35.0002 6.52148 34.8179C6.65365 34.6356 6.84049 34.4932 7.08203 34.3906C7.32357 34.2858 7.59473 34.2334 7.89551 34.2334C8.35124 34.2334 8.7124 34.3485 8.979 34.5786C9.24788 34.8065 9.38232 35.1278 9.38232 35.5425V37.1455C9.3846 37.4964 9.43359 37.7619 9.5293 37.9419V38H8.53125ZM7.71436 37.313C7.86019 37.313 7.99463 37.2811 8.11768 37.2173C8.24072 37.1512 8.33187 37.0635 8.39111 36.9541V36.3184H8.02197C7.52751 36.3184 7.26432 36.4893 7.23242 36.8311L7.229 36.8892C7.229 37.0122 7.2723 37.1136 7.35889 37.1934C7.44548 37.2731 7.56396 37.313 7.71436 37.313ZM11.3237 33.3926V34.3018H11.9561V35.0264H11.3237V36.8721C11.3237 37.0088 11.3499 37.1068 11.4023 37.166C11.4548 37.2253 11.555 37.2549 11.7031 37.2549C11.8125 37.2549 11.9093 37.2469 11.9937 37.231V37.9795C11.8 38.0387 11.6006 38.0684 11.3955 38.0684C10.7028 38.0684 10.3496 37.7186 10.3359 37.019V35.0264H9.7959V34.3018H10.3359V33.3926H11.3237ZM14.0444 37.272C14.2267 37.272 14.3748 37.2218 14.4888 37.1216C14.6027 37.0213 14.6619 36.888 14.6665 36.7217H15.5928C15.5905 36.9723 15.5221 37.2025 15.3877 37.4121C15.2533 37.6195 15.0687 37.7812 14.834 37.8975C14.6016 38.0114 14.3441 38.0684 14.0615 38.0684C13.5329 38.0684 13.1159 37.9009 12.8105 37.5659C12.5052 37.2287 12.3525 36.7638 12.3525 36.1714V36.1064C12.3525 35.5368 12.5041 35.0822 12.8071 34.7427C13.1102 34.4032 13.526 34.2334 14.0547 34.2334C14.5173 34.2334 14.8875 34.3656 15.1655 34.6299C15.4458 34.8919 15.5882 35.2417 15.5928 35.6792H14.6665C14.6619 35.4878 14.6027 35.3328 14.4888 35.2144C14.3748 35.0936 14.2244 35.0332 14.0376 35.0332C13.8075 35.0332 13.6331 35.1175 13.5146 35.2861C13.3984 35.4525 13.3403 35.7236 13.3403 36.0996V36.2021C13.3403 36.5827 13.3984 36.8561 13.5146 37.0225C13.6309 37.1888 13.8075 37.272 14.0444 37.272ZM17.1206 34.7051C17.3826 34.3906 17.7119 34.2334 18.1084 34.2334C18.9105 34.2334 19.3172 34.6994 19.3286 35.6313V38H18.3408V35.6587C18.3408 35.4468 18.2952 35.2907 18.2041 35.1904C18.113 35.0879 17.9614 35.0366 17.7495 35.0366C17.4601 35.0366 17.2505 35.1483 17.1206 35.3716V38H16.1328V32.75H17.1206V34.7051ZM25.0332 36.6567L25.5186 34.3018H26.4722L25.5288 38H24.7017L24.001 35.6724L23.3003 38H22.4766L21.5332 34.3018H22.4868L22.9688 36.6533L23.6455 34.3018H24.3599L25.0332 36.6567ZM28.0068 38H27.0156V34.3018H28.0068V38ZM26.9575 33.3447C26.9575 33.1966 27.0065 33.0747 27.1045 32.979C27.2048 32.8833 27.3403 32.8354 27.5112 32.8354C27.6799 32.8354 27.8143 32.8833 27.9146 32.979C28.0148 33.0747 28.0649 33.1966 28.0649 33.3447C28.0649 33.4951 28.0137 33.6182 27.9111 33.7139C27.8109 33.8096 27.6776 33.8574 27.5112 33.8574C27.3449 33.8574 27.2104 33.8096 27.1079 33.7139C27.0076 33.6182 26.9575 33.4951 26.9575 33.3447ZM30.0063 33.3926V34.3018H30.6387V35.0264H30.0063V36.8721C30.0063 37.0088 30.0326 37.1068 30.085 37.166C30.1374 37.2253 30.2376 37.2549 30.3857 37.2549C30.4951 37.2549 30.592 37.2469 30.6763 37.231V37.9795C30.4826 38.0387 30.2832 38.0684 30.0781 38.0684C29.3854 38.0684 29.0322 37.7186 29.0186 37.019V35.0264H28.4785V34.3018H29.0186V33.3926H30.0063ZM32.1528 34.7051C32.4149 34.3906 32.7441 34.2334 33.1406 34.2334C33.9427 34.2334 34.3494 34.6994 34.3608 35.6313V38H33.373V35.6587C33.373 35.4468 33.3275 35.2907 33.2363 35.1904C33.1452 35.0879 32.9937 35.0366 32.7817 35.0366C32.4924 35.0366 32.2827 35.1483 32.1528 35.3716V38H31.165V32.75H32.1528V34.7051ZM39.064 37.624C38.8201 37.9202 38.4829 38.0684 38.0522 38.0684C37.6558 38.0684 37.3527 37.9544 37.1431 37.7266C36.9357 37.4987 36.8298 37.1649 36.8252 36.7251V34.3018H37.813V36.6909C37.813 37.076 37.9884 37.2686 38.3394 37.2686C38.6743 37.2686 38.9045 37.1523 39.0298 36.9199V34.3018H40.021V38H39.0913L39.064 37.624ZM42.769 36.978C42.769 36.8573 42.7087 36.7627 42.5879 36.6943C42.4694 36.6237 42.278 36.561 42.0137 36.5063C41.1341 36.3218 40.6943 35.9481 40.6943 35.3853C40.6943 35.0571 40.8299 34.7837 41.1011 34.5649C41.3745 34.3439 41.7311 34.2334 42.1709 34.2334C42.6403 34.2334 43.0151 34.3439 43.2954 34.5649C43.578 34.786 43.7192 35.0731 43.7192 35.4263H42.7314C42.7314 35.285 42.6859 35.1688 42.5947 35.0776C42.5036 34.9842 42.3612 34.9375 42.1675 34.9375C42.0011 34.9375 41.8724 34.9751 41.7812 35.0503C41.6901 35.1255 41.6445 35.2212 41.6445 35.3374C41.6445 35.4468 41.6958 35.5356 41.7983 35.604C41.9032 35.6701 42.0786 35.7282 42.3247 35.7783C42.5708 35.8262 42.7782 35.8809 42.9468 35.9424C43.4686 36.1338 43.7295 36.4653 43.7295 36.937C43.7295 37.2743 43.5848 37.5477 43.2954 37.7573C43.006 37.9647 42.6323 38.0684 42.1743 38.0684C41.8644 38.0684 41.5887 38.0137 41.3472 37.9043C41.1079 37.7926 40.9199 37.6411 40.7832 37.4497C40.6465 37.256 40.5781 37.0475 40.5781 36.8242H41.5146C41.5238 36.9997 41.5887 37.1341 41.7095 37.2275C41.8302 37.321 41.992 37.3677 42.1948 37.3677C42.384 37.3677 42.5264 37.3324 42.6221 37.2617C42.7201 37.1888 42.769 37.0942 42.769 36.978Z" fill="#FFB703" fill-opacity="0.8"/>
<path d="M11.8018 45C11.7692 44.9365 11.7456 44.8576 11.731 44.7632C11.5601 44.9536 11.3379 45.0488 11.0645 45.0488C10.8057 45.0488 10.5908 44.974 10.4199 44.8242C10.2507 44.6745 10.166 44.4857 10.166 44.2578C10.166 43.9779 10.2694 43.763 10.4761 43.6133C10.6844 43.4635 10.9847 43.3879 11.377 43.3862H11.7017V43.2349C11.7017 43.1128 11.6699 43.0151 11.6064 42.9419C11.5446 42.8687 11.4461 42.832 11.311 42.832C11.1922 42.832 11.0986 42.8605 11.0303 42.9175C10.9635 42.9744 10.9302 43.0526 10.9302 43.1519H10.2246C10.2246 42.9989 10.2718 42.8573 10.3662 42.7271C10.4606 42.5968 10.5941 42.4951 10.7666 42.4219C10.9391 42.347 11.1328 42.3096 11.3477 42.3096C11.6732 42.3096 11.9312 42.3918 12.1216 42.5562C12.3136 42.7189 12.4097 42.9484 12.4097 43.2446V44.3896C12.4113 44.6403 12.4463 44.8299 12.5146 44.9585V45H11.8018ZM11.2183 44.5093C11.3224 44.5093 11.4185 44.4865 11.5063 44.4409C11.5942 44.3937 11.6593 44.3311 11.7017 44.2529V43.7988H11.438C11.0848 43.7988 10.8968 43.9209 10.874 44.165L10.8716 44.2065C10.8716 44.2944 10.9025 44.3669 10.9644 44.4238C11.0262 44.4808 11.1108 44.5093 11.2183 44.5093ZM13.6011 42.3584L13.623 42.6636C13.8118 42.4276 14.0649 42.3096 14.3823 42.3096C14.6623 42.3096 14.8706 42.3918 15.0073 42.5562C15.144 42.7205 15.214 42.9663 15.2173 43.2935V45H14.5117V43.3105C14.5117 43.1608 14.4792 43.0526 14.4141 42.9858C14.349 42.9175 14.2407 42.8833 14.0894 42.8833C13.8908 42.8833 13.7419 42.9679 13.6426 43.1372V45H12.937V42.3584H13.6011ZM15.6445 43.6597C15.6445 43.2479 15.7365 42.9199 15.9204 42.6758C16.106 42.4316 16.359 42.3096 16.6797 42.3096C16.9368 42.3096 17.1493 42.4056 17.3169 42.5977V41.25H18.0249V45H17.3877L17.3535 44.7192C17.1777 44.939 16.9515 45.0488 16.6748 45.0488C16.3639 45.0488 16.1141 44.9268 15.9253 44.6826C15.7381 44.4368 15.6445 44.0959 15.6445 43.6597ZM16.3501 43.7109C16.3501 43.9583 16.3932 44.1479 16.4795 44.2798C16.5658 44.4116 16.6911 44.4775 16.8555 44.4775C17.0736 44.4775 17.2274 44.3856 17.3169 44.2017V43.1592C17.229 42.9753 17.0768 42.8833 16.8604 42.8833C16.5202 42.8833 16.3501 43.1592 16.3501 43.7109ZM22.002 43.4595H20.5957V44.4116H22.2461V45H19.8633V41.4453H22.2412V42.0386H20.5957V42.8857H22.002V43.4595ZM23.2788 42.3584L23.3008 42.6636C23.4896 42.4276 23.7427 42.3096 24.0601 42.3096C24.34 42.3096 24.5483 42.3918 24.6851 42.5562C24.8218 42.7205 24.8918 42.9663 24.895 43.2935V45H24.1895V43.3105C24.1895 43.1608 24.1569 43.0526 24.0918 42.9858C24.0267 42.9175 23.9185 42.8833 23.7671 42.8833C23.5685 42.8833 23.4196 42.9679 23.3203 43.1372V45H22.6147V42.3584H23.2788ZM26.1792 42.3584V45.144C26.1792 45.4354 26.1019 45.6616 25.9473 45.8228C25.7926 45.9855 25.5697 46.0669 25.2783 46.0669C25.1562 46.0669 25.0399 46.0531 24.9292 46.0254V45.4663C25.0138 45.481 25.0879 45.4883 25.1514 45.4883C25.3646 45.4883 25.4712 45.3752 25.4712 45.1489V42.3584H26.1792ZM25.415 41.6748C25.415 41.569 25.45 41.4819 25.52 41.4136C25.5916 41.3452 25.6885 41.311 25.8105 41.311C25.9326 41.311 26.0286 41.3452 26.0986 41.4136C26.1702 41.4819 26.2061 41.569 26.2061 41.6748C26.2061 41.7822 26.1694 41.8701 26.0962 41.9385C26.0246 42.0068 25.9294 42.041 25.8105 42.041C25.6917 42.041 25.5957 42.0068 25.5225 41.9385C25.4508 41.8701 25.415 41.7822 25.415 41.6748ZM26.6211 43.6548C26.6211 43.3927 26.6715 43.1592 26.7725 42.9541C26.8734 42.749 27.0182 42.5903 27.207 42.478C27.3975 42.3657 27.618 42.3096 27.8687 42.3096C28.2251 42.3096 28.5156 42.4186 28.7402 42.6367C28.9665 42.8548 29.0926 43.151 29.1187 43.5254L29.1235 43.7061C29.1235 44.1113 29.0104 44.4368 28.7842 44.6826C28.5579 44.9268 28.2544 45.0488 27.8735 45.0488C27.4927 45.0488 27.1883 44.9268 26.9604 44.6826C26.7342 44.4385 26.6211 44.1064 26.6211 43.6865V43.6548ZM27.3267 43.7061C27.3267 43.9567 27.3739 44.1488 27.4683 44.2822C27.5627 44.4141 27.6978 44.48 27.8735 44.48C28.0444 44.48 28.1779 44.4149 28.2739 44.2847C28.37 44.1528 28.418 43.9429 28.418 43.6548C28.418 43.409 28.37 43.2186 28.2739 43.0835C28.1779 42.9484 28.0428 42.8809 27.8687 42.8809C27.6961 42.8809 27.5627 42.9484 27.4683 43.0835C27.3739 43.217 27.3267 43.4245 27.3267 43.7061ZM30.5054 44.0015L30.9937 42.3584H31.7505L30.6885 45.4102L30.6299 45.5493C30.472 45.8944 30.2116 46.0669 29.8486 46.0669C29.7461 46.0669 29.6419 46.0514 29.5361 46.0205V45.4858L29.6436 45.4883C29.777 45.4883 29.8763 45.4679 29.9414 45.4272C30.0081 45.3866 30.0602 45.319 30.0977 45.2246L30.1807 45.0073L29.2554 42.3584H30.0146L30.5054 44.0015Z" fill="#FFB703" fill-opacity="0.8"/>
<path d="M29.9883 4.07813C33.2695 4.9987 34.9102 7.11784 34.9102 10.4355L34.9102 13.1563C34.9102 15.0794 35.7214 16.041 37.3437 16.041L37.3437 18.8711C35.7578 18.8711 34.9466 19.778 34.9102 21.5918L34.9102 24.4902C34.9102 26.1764 34.5 27.5391 33.6797 28.5781C32.8594 29.6172 31.6289 30.3691 29.9883 30.834L29.2227 28.6328C29.9154 28.3776 30.4395 27.931 30.7949 27.293C31.1504 26.6641 31.3372 25.7891 31.3555 24.668L31.3555 21.7969C31.3555 19.737 32.1712 18.2923 33.8027 17.4629C32.1712 16.6243 31.3555 15.1706 31.3555 13.1016L31.3555 10.2031C31.3099 8.07031 30.599 6.76693 29.2227 6.29297L29.9883 4.07813Z" fill="#FFB703"/>
<path d="M13.0117 30.9219C9.73047 30.0013 8.08984 27.8822 8.08984 24.5645V21.8438C8.08984 19.9206 7.27865 18.959 5.65625 18.959V16.1289C7.24219 16.1289 8.05339 15.222 8.08984 13.4082V10.5098C8.08984 8.82357 8.5 7.46094 9.32031 6.42188C10.1406 5.38281 11.3711 4.63086 13.0117 4.16602L13.7773 6.36719C13.0846 6.6224 12.5605 7.06901 12.2051 7.70703C11.8496 8.33594 11.6628 9.21094 11.6445 10.332V13.2031C11.6445 15.263 10.8288 16.7077 9.19727 17.5371C10.8288 18.3757 11.6445 19.8294 11.6445 21.8984V24.7969C11.6901 26.9297 12.401 28.2331 13.7773 28.707L13.0117 30.9219Z" fill="#FFB703"/>
</svg>
